<svg width="23" height="22" viewBox="0 0 23 22" fill="none" xmlns="http://www.w3.org/2000/svg">
<rect width="22" height="22" rx="2.46154" transform="matrix(-1 0 0 1 22.8462 0)" fill="#343A40"/>
<path d="M15.207 6.7222H12.9154L12.7244 6.37845C12.648 6.22567 12.4952 6.11108 12.3234 6.11108H10.1272C9.9553 6.11108 9.80252 6.22567 9.72613 6.37845L9.55425 6.7222H7.26259C7.09071 6.7222 6.95703 6.87497 6.95703 7.02775V7.63886C6.95703 7.81074 7.09071 7.94442 7.26259 7.94442H15.207C15.3598 7.94442 15.5126 7.81074 15.5126 7.63886V7.02775C15.5126 6.87497 15.3598 6.7222 15.207 6.7222ZM7.96918 15.0295C7.98828 15.526 8.38932 15.8889 8.88585 15.8889H13.5647C14.0612 15.8889 14.4622 15.526 14.4813 15.0295L14.9015 8.55553H7.56814L7.96918 15.0295Z" fill="#F8F9FA"/>
</svg>
